<svg width="25" height="26" viewBox="0 0 25 26" fill="none" xmlns="http://www.w3.org/2000/svg">
<path d="M5 12V7.54966C5.01464 6.67488 5.22041 5.8113 5.60551 5.00841C5.99061 4.20551 6.54747 3.47909 7.24418 2.87075C7.9409 2.26242 8.76378 1.78413 9.66567 1.4633C10.5676 1.14246 11.5307 0.985386 12.5 1.00107V1.00107C13.4693 0.985386 14.4324 1.14246 15.3343 1.4633C16.2362 1.78413 17.0591 2.26242 17.7558 2.87075C18.4525 3.47909 19.0094 4.20551 19.3945 5.00841C19.7796 5.8113 19.9854 6.67488 20 7.54966V12" stroke="#111111" stroke-width="1.5" stroke-linecap="round" stroke-linejoin="round"/>
<path d="M2.6 10H4.2C4.41217 10 4.61566 10.0922 4.76569 10.2563C4.91571 10.4204 5 10.6429 5 10.875V16.125C5 16.3571 4.91571 16.5796 4.76569 16.7437C4.61566 16.9078 4.41217 17 4.2 17H2.6C2.17565 17 1.76869 16.8156 1.46863 16.4874C1.16857 16.1592 1 15.7141 1 15.25V11.75C1 11.2859 1.16857 10.8408 1.46863 10.5126C1.76869 10.1844 2.17565 10 2.6 10V10Z" stroke="#111111" stroke-width="1.5" stroke-linecap="round" stroke-linejoin="round"/>
<path d="M22.4 10H20.8C20.5878 10 20.3843 10.0922 20.2343 10.2563C20.0843 10.4204 20 10.6429 20 10.875V16.125C20 16.3571 20.0843 16.5796 20.2343 16.7437C20.3843 16.9078 20.5878 17 20.8 17H22.4C22.8243 17 23.2313 16.8156 23.5314 16.4874C23.8314 16.1592 24 15.7141 24 15.25V11.75C24 11.2859 23.8314 10.8408 23.5314 10.5126C23.2313 10.1844 22.8243 10 22.4 10V10Z" stroke="#111111" stroke-width="1.5" stroke-linecap="round" stroke-linejoin="round"/>
<path d="M16 22C17.0609 22 18.0783 21.5538 18.8284 20.7595C19.5786 19.9652 20 18.888 20 17.7647V13" stroke="#111111" stroke-width="1.5" stroke-linecap="round" stroke-linejoin="round"/>
<rect x="16.25" y="20.75" width="3.5" height="7.5" rx="1.75" transform="rotate(90 16.25 20.75)" fill="#F5F5F5" stroke="#1F1F1F" stroke-width="1.5"/>
</svg>
