<svg width="87" height="24" viewBox="0 0 87 24" fill="none" xmlns="http://www.w3.org/2000/svg">
<g id="logo">
<path d="M0.00322788 14.4302H5.21902C7.07253 14.4302 7.30978 14.4302 7.92886 14.6151C8.64431 14.7999 9.12252 15.3543 9.33753 16.2119C9.50064 16.8772 9.54512 17.4686 9.54512 19.01C9.54512 21.4717 9.38202 22.4328 8.85191 23.0759C8.3218 23.7191 7.65825 23.867 5.21902 23.867H0.00322788V14.4302ZM5.24126 21.4533C7.23564 21.4533 7.37651 21.3128 7.37651 19.1763C7.37651 18.0157 7.29866 17.4945 7.08365 17.184C6.86865 16.8735 6.56096 16.7885 5.23014 16.7885H2.18296V21.4569L5.24126 21.4533Z" fill="#111111"/>
<path d="M17.8485 14.4302V23.8596H15.539V14.4302H17.8485Z" fill="#111111"/>
<path d="M33.4196 18.5147V18.7697C33.4196 19.7049 33.3788 21.3165 33.3455 21.7674C33.2565 22.8763 32.7931 23.5195 31.922 23.745C31.1806 23.9446 30.4391 24 28.4633 24C25.9796 24 25.2122 23.8743 24.6043 23.3347C23.9963 22.795 23.8443 22.0927 23.8443 18.9952C23.8443 14.5855 24.1594 14.2898 28.8451 14.2898C31.5327 14.2898 32.5299 14.5152 33.0081 15.2656C33.3121 15.7313 33.3974 16.3117 33.4085 17.6941H31.2065C31.2065 17.1433 31.1768 17.0324 31.036 16.9031C30.8173 16.7072 30.2946 16.6517 28.6598 16.6517C26.0649 16.6517 26.0463 16.6517 26.0463 19.1098C26.0463 20.7066 26.1093 21.1871 26.3503 21.4421C26.5356 21.6381 26.721 21.6824 27.3475 21.712L28.6375 21.7379C31.2065 21.7379 31.2732 21.712 31.2732 20.6659V20.3961H28.378V18.5147H33.4196Z" fill="#111111"/>
<path d="M41.7219 14.4302V23.8596H39.4124V14.4302H41.7219Z" fill="#111111"/>
<path d="M56.47 14.4302V16.8329H53.2486V23.8559H50.9392V16.8329H47.7177V14.4302H56.47Z" fill="#111111"/>
<path d="M70.3772 22.2627H65.5951L64.9798 23.8596H62.4627L66.2921 14.4302H69.7174L73.5022 23.8596H70.9963L70.3772 22.2627ZM68.2086 16.6222H67.7749L66.3773 20.1965H69.6099L68.2086 16.6222Z" fill="#111111"/>
<path d="M81.8218 14.4302V21.4533H86.9635V23.8559H79.5124V14.4302H81.8218Z" fill="#111111"/>
<path d="M5.86452 6.38705L3.67367 0.158749H0V9.75439H2.20939L2.15749 2.57245H2.16861L4.93777 9.75439H6.79128L9.56784 2.57245L9.51966 9.75439H11.7253V0.158749H8.05167L5.86452 6.38705Z" fill="#111111"/>
<path d="M28.07 4.30973V6.25399H30.435C30.4393 6.5109 30.4257 6.7678 30.3943 7.02283C30.3794 7.15043 30.322 7.26936 30.2313 7.36053C30.1405 7.4517 30.0217 7.5098 29.8938 7.52553C29.1839 7.58864 28.4712 7.61578 27.7586 7.60685C26.7465 7.58467 26.1386 7.56619 25.9384 7.54401C25.7471 7.52807 25.5677 7.44506 25.432 7.30973C25.2962 7.17439 25.213 6.99547 25.197 6.80474C25.1225 6.19165 25.0927 5.57397 25.108 4.95658C25.0944 4.40324 25.1229 3.84967 25.1933 3.30063C25.2044 3.12839 25.2699 2.96407 25.3805 2.83126C25.491 2.69845 25.6409 2.60397 25.8087 2.56137C26.4499 2.46306 27.0989 2.42347 27.7474 2.44309C28.448 2.42782 29.1489 2.45745 29.8456 2.5318C29.9574 2.53897 30.0641 2.58102 30.1506 2.652C30.2371 2.72299 30.299 2.8193 30.3275 2.9273C30.3558 3.10324 30.367 3.28149 30.3609 3.45958H32.6074C32.6074 3.06037 32.6074 2.76467 32.5888 2.56876C32.586 2.02128 32.4512 1.4825 32.1959 0.997826C31.8992 0.587607 31.4536 0.309093 30.954 0.221599C29.9682 0.0475383 28.9669 -0.0243067 27.9662 0.00721252C27.0997 -0.00352404 26.2333 0.0347325 25.3712 0.121798C25.0147 0.150612 24.662 0.215004 24.3184 0.314007C24.086 0.392262 23.8726 0.518174 23.6919 0.683639C23.3178 1.09296 23.0852 1.61121 23.0284 2.16217C22.9102 3.02803 22.8606 3.90183 22.8801 4.77547C22.8801 5.51473 22.8801 6.19116 22.9098 6.83431C22.9139 7.29742 22.9698 7.75862 23.0766 8.20935C23.1521 8.5824 23.3398 8.92369 23.6146 9.1878C23.8894 9.45191 24.2383 9.62634 24.615 9.68787C25.5955 9.84319 26.5882 9.90753 27.5806 9.88008C28.3628 9.88008 29.0412 9.88008 29.6121 9.84312C30.1122 9.82253 30.6089 9.75194 31.0949 9.63243C31.9697 9.39586 32.4554 8.72683 32.5406 7.61793C32.5925 6.93535 32.6185 5.96568 32.6185 4.70893C32.6185 4.64609 32.6185 4.51303 32.6185 4.29864L28.07 4.30973Z" fill="#111111"/>
<path d="M37.5125 0.158736L33.6313 9.75438H36.1891L36.8156 8.128H41.6792L42.3168 9.75438H44.8487L41.0046 0.143951L37.5125 0.158736ZM37.5978 6.02479L39.0139 2.39501H39.4624L40.8748 6.02479H37.5978Z" fill="#111111"/>
<path d="M54.1754 2.46156V0.158749H45.9347V2.46156H50.5536L45.8198 7.4368V9.75439H54.3311V7.4368H49.3711L54.1754 2.46156Z" fill="#111111"/>
<path d="M64.6364 0.169831C63.5723 0.0455937 62.5009 -0.00504369 61.4298 0.0182815C60.3155 -0.0061122 59.2009 0.0445192 58.0935 0.169831C57.6918 0.227311 57.3201 0.414661 57.0355 0.703121C56.7509 0.991581 56.5691 1.36521 56.518 1.76664C56.3536 2.82285 56.2866 3.89186 56.3178 4.96026C56.2869 6.02497 56.3539 7.09027 56.518 8.14279C56.5693 8.54476 56.7516 8.9188 57.0369 9.20732C57.3223 9.49585 57.6948 9.68287 58.0972 9.7396C59.1832 9.8684 60.2772 9.91905 61.3705 9.89115C62.4638 9.91963 63.5578 9.86898 64.6438 9.7396C65.0455 9.68212 65.4172 9.49477 65.7018 9.20631C65.9864 8.91785 66.1682 8.54423 66.2193 8.14279C66.3834 7.09027 66.4504 6.02497 66.4195 4.96026C66.4502 3.89187 66.3832 2.8229 66.2193 1.76664C66.1678 1.36413 65.985 0.989684 65.6989 0.701096C65.4128 0.412509 65.0395 0.225817 64.6364 0.169831ZM64.0989 6.47945C64.0821 6.69109 63.9918 6.89027 63.8437 7.04274C63.6955 7.1952 63.4986 7.29141 63.287 7.31482C62.6459 7.387 62.0007 7.41541 61.3557 7.39983C60.7119 7.41509 60.0679 7.38669 59.428 7.31482C59.217 7.28887 59.0212 7.19196 58.873 7.04008C58.7247 6.8882 58.6328 6.69043 58.6125 6.47945C58.5601 6.05277 58.5391 5.62286 58.5494 5.19313C58.5282 4.56132 58.5667 3.92893 58.6644 3.30431C58.6893 3.15271 58.7544 3.01048 58.8527 2.89225C58.9511 2.77401 59.0793 2.68404 59.2241 2.63158C59.9016 2.52259 60.5885 2.48296 61.2741 2.5133C62.0748 2.5133 62.579 2.5133 62.7569 2.5133C63.1166 2.49446 63.4728 2.59167 63.7726 2.79052C63.9997 3.05939 64.1232 3.4001 64.1211 3.75156C64.1508 4.03618 64.1619 4.52409 64.1619 5.23009C64.1768 5.64757 64.1557 6.06556 64.0989 6.47945Z" fill="#111111"/>
<path d="M75.5946 7.31482L72.084 0.158749H68.3955V9.75439H70.642V2.58723L74.1711 9.75439H77.8336V0.158749H75.5946V7.31482Z" fill="#111111"/>
<path d="M79.8158 9.75439H87V7.44789H82.0252V5.90653H87V3.79962H82.0252V2.4135H87V0.158749H79.8158V9.75439Z" fill="#111111"/>
<path d="M13.712 9.75439H20.8888V7.44789H15.914V5.90653H20.8888V3.79962H15.914V2.4135H20.8888V0.158749H13.712V9.75439Z" fill="#111111"/>
</g>
</svg>
