<svg width="121" height="34" viewBox="0 0 121 34" fill="none" xmlns="http://www.w3.org/2000/svg">
  <path d="M0.504452 19.9038H7.69865C10.2552 19.9038 10.5825 19.9038 11.4364 20.1587C12.4232 20.4136 13.0828 21.1784 13.3794 22.3612C13.6043 23.2789 13.6657 24.0946 13.6657 26.2207C13.6657 29.6162 13.4407 30.9418 12.7095 31.8289C11.9784 32.716 11.0631 32.9199 7.69865 32.9199H0.504452V19.9038ZM7.72933 29.5907C10.4802 29.5907 10.6745 29.397 10.6745 26.4501C10.6745 24.8492 10.5671 24.1303 10.2706 23.7021C9.974 23.2738 9.54961 23.1566 7.71399 23.1566H3.51098V29.5958L7.72933 29.5907Z" fill="#111111"/>
  <path d="M25.1186 19.9038V32.9097H21.9331V19.9038H25.1186Z" fill="#111111"/>
  <path d="M46.596 25.5375V25.8893C46.596 27.1791 46.5398 29.402 46.4937 30.024C46.371 31.5535 45.7319 32.4407 44.5303 32.7517C43.5077 33.027 42.485 33.1034 39.7597 33.1034C36.3339 33.1034 35.2755 32.9301 34.4369 32.1857C33.5984 31.4414 33.3888 30.4727 33.3888 26.2003C33.3888 20.1179 33.8234 19.71 40.2864 19.71C43.9934 19.71 45.3689 20.021 46.0285 21.056C46.4477 21.6984 46.5653 22.4988 46.5807 24.4056H43.5435C43.5435 23.646 43.5026 23.493 43.3083 23.3146C43.0066 23.0444 42.2856 22.9679 40.0307 22.9679C36.4515 22.9679 36.426 22.9679 36.426 26.3583C36.426 28.5608 36.5129 29.2236 36.8452 29.5754C37.1009 29.8456 37.3566 29.9068 38.2207 29.9476L40 29.9832C43.5435 29.9832 43.6355 29.9476 43.6355 28.5047V28.1325H39.6421V25.5375H46.596Z" fill="#111111"/>
  <path d="M58.0474 19.9038V32.9097H54.8619V19.9038H58.0474Z" fill="#111111"/>
  <path d="M78.3897 19.9038V23.2177H73.9464V32.9046H70.7609V23.2177H66.3176V19.9038H78.3897Z" fill="#111111"/>
  <path d="M97.572 30.7072H90.9761L90.1273 32.9097H86.6554L91.9373 19.9038H96.6619L101.882 32.9097H98.4259L97.572 30.7072ZM94.5808 22.9271H93.9826L92.0549 27.8573H96.5136L94.5808 22.9271Z" fill="#111111"/>
  <path d="M113.358 19.9038V29.5907H120.45V32.9046H110.172V19.9038H113.358Z" fill="#111111"/>
  <path d="M8.589 8.80972L5.56713 0.218964H0.5V13.4543H3.54743L3.47585 3.5482H3.49119L7.31071 13.4543H9.86729L13.697 3.5482L13.6306 13.4543H16.6729V0.218964H11.6058L8.589 8.80972Z" fill="#111111"/>
  <path d="M39.2172 5.94445V8.6262H42.4794C42.4853 8.98056 42.4665 9.3349 42.4231 9.68666C42.4027 9.86266 42.3235 10.0267 42.1983 10.1525C42.0731 10.2782 41.9092 10.3584 41.7328 10.38C40.7537 10.4671 39.7707 10.5045 38.7877 10.4922C37.3918 10.4616 36.5532 10.4361 36.2771 10.4055C36.0133 10.3835 35.7658 10.2691 35.5786 10.0824C35.3914 9.89571 35.2765 9.64893 35.2545 9.38585C35.1517 8.54021 35.1107 7.68824 35.1318 6.83667C35.113 6.07344 35.1523 5.30989 35.2494 4.5526C35.2647 4.31502 35.3551 4.08838 35.5075 3.90519C35.66 3.722 35.8668 3.59168 36.0982 3.53292C36.9827 3.39732 37.8778 3.34271 38.7723 3.36978C39.7386 3.34872 40.7053 3.38959 41.6664 3.49214C41.8206 3.50203 41.9677 3.56003 42.087 3.65794C42.2063 3.75584 42.2917 3.88869 42.3311 4.03766C42.3701 4.28033 42.3855 4.5262 42.3771 4.77183H45.4757C45.4757 4.2212 45.4757 3.81333 45.4501 3.54312C45.4462 2.78798 45.2603 2.04483 44.9081 1.37631C44.4989 0.810493 43.8843 0.426335 43.1952 0.305654C41.8354 0.0655701 40.4543 -0.0335264 39.074 0.0099483C37.8789 -0.00486075 36.6839 0.0479068 35.4948 0.167998C35.0031 0.207741 34.5166 0.296557 34.0427 0.433113C33.7221 0.541051 33.4277 0.714723 33.1786 0.94295C32.6624 1.50754 32.3416 2.22236 32.2633 2.9823C32.1003 4.17659 32.0319 5.38184 32.0588 6.58685C32.0588 7.60652 32.0588 8.53952 32.0997 9.42664C32.1053 10.0654 32.1825 10.7015 32.3298 11.3232C32.4339 11.8378 32.6928 12.3085 33.0718 12.6728C33.4509 13.0371 33.9322 13.2777 34.4517 13.3626C35.8041 13.5768 37.1734 13.6656 38.5422 13.6277C39.6211 13.6277 40.5568 13.6277 41.3442 13.5767C42.034 13.5483 42.7192 13.451 43.3895 13.2861C44.5962 12.9598 45.266 12.037 45.3836 10.5075C45.4552 9.566 45.491 8.22852 45.491 6.49508C45.491 6.40841 45.491 6.22486 45.491 5.92916L39.2172 5.94445Z" fill="#111111"/>
  <path d="M52.2414 0.218947L46.888 13.4543H50.416L51.2802 11.211H57.9886L58.8681 13.4543H62.3603L57.058 0.198553L52.2414 0.218947ZM52.359 8.31006L54.3123 3.30346H54.9309L56.8791 8.31006H52.359Z" fill="#111111"/>
  <path d="M75.2247 3.39525V0.218964H63.8582V3.39525H70.2291L63.6997 10.2577V13.4543H75.4394V10.2577H68.5981L75.2247 3.39525Z" fill="#111111"/>
  <path d="M89.6536 0.234249C88.186 0.0628878 86.7081 -0.00695682 85.2308 0.0252159C83.6939 -0.00843062 82.1564 0.0614058 80.6289 0.234249C80.0749 0.313532 79.5622 0.571946 79.1696 0.969822C78.7771 1.3677 78.5263 1.88304 78.4558 2.43675C78.229 3.89358 78.1366 5.36808 78.1797 6.84174C78.1371 8.31031 78.2295 9.77969 78.4558 11.2314C78.5266 11.7859 78.7781 12.3018 79.1716 12.6998C79.5652 13.0977 80.079 13.3557 80.6341 13.4339C82.132 13.6116 83.6409 13.6814 85.1489 13.643C86.657 13.6823 88.1659 13.6124 89.6639 13.4339C90.2179 13.3546 90.7306 13.0962 91.1232 12.6984C91.5157 12.3005 91.7665 11.7851 91.837 11.2314C92.0633 9.77969 92.1557 8.31031 92.1131 6.84174C92.1555 5.36809 92.0631 3.89365 91.837 2.43675C91.766 1.88155 91.5137 1.36508 91.1192 0.96703C90.7246 0.568977 90.2096 0.311471 89.6536 0.234249ZM88.9122 8.93717C88.8891 9.22909 88.7646 9.50383 88.5602 9.71412C88.3558 9.92442 88.0843 10.0571 87.7925 10.0894C86.9082 10.189 86.0181 10.2281 85.1285 10.2067C84.2406 10.2277 83.3523 10.1885 82.4697 10.0894C82.1787 10.0536 81.9086 9.91994 81.7041 9.71045C81.4996 9.50096 81.3728 9.22819 81.3448 8.93717C81.2726 8.34865 81.2435 7.75567 81.2579 7.16294C81.2286 6.29148 81.2817 5.41921 81.4164 4.55767C81.4508 4.34857 81.5405 4.15239 81.6762 3.98931C81.8119 3.82623 81.9887 3.70212 82.1885 3.62976C83.1229 3.47944 84.0704 3.42477 85.016 3.46662C86.1205 3.46662 86.8158 3.46662 87.0613 3.46662C87.5574 3.44063 88.0486 3.57471 88.4623 3.84899C88.7754 4.21985 88.9458 4.68979 88.9429 5.17457C88.9838 5.56714 88.9992 6.24013 88.9992 7.21392C89.0197 7.78976 88.9907 8.3663 88.9122 8.93717Z" fill="#111111"/>
  <path d="M104.768 10.0894L99.9263 0.218964H94.8387V13.4543H97.9372V3.56859L102.805 13.4543H107.857V0.218964H104.768V10.0894Z" fill="#111111"/>
  <path d="M110.591 13.4543H120.5V10.273H113.638V8.14693H120.5V5.24086H113.638V3.32897H120.5V0.218964H110.591V13.4543Z" fill="#111111"/>
  <path d="M19.4131 13.4543H29.3122V10.273H22.4504V8.14693H29.3122V5.24086H22.4504V3.32897H29.3122V0.218964H19.4131V13.4543Z" fill="#111111"/>
</svg>