<svg width="20" height="15" viewBox="0 0 20 15" fill="none" xmlns="http://www.w3.org/2000/svg">
  <g clip-path="url(#clip0_8365_5630)">
    <path d="M16.61 11.84H11.03L9.88003 14.46H8.34003L13.09 3.95996H14.57L19.34 14.46H17.77L16.61 11.84ZM16.08 10.64L13.82 5.48996L11.56 10.64H16.09H16.08Z" fill="#333333"/>
    <path d="M0.54998 3.09V1.87H5.74998C5.55998 1.31 5.33998 0.76 5.08998 0.23L6.53998 0C6.62998 0.31 6.78998 0.77 7.00998 1.36C7.09998 1.58 7.16998 1.75 7.19998 1.88H11.65V3.1H9.72998C9.25998 5.07 8.39998 6.71 7.14998 8.02C8.36998 8.83 9.89998 9.46 11.74 9.9C11.46 10.24 11.19 10.63 10.94 11.07C8.84998 10.44 7.21998 9.73 6.05998 8.91C5.11998 9.6 3.52998 10.36 1.27998 11.21C1.08998 10.87 0.82998 10.44 0.47998 9.94C2.35998 9.44 3.88998 8.8 5.06998 8.02C3.78998 6.71 2.90998 5.07 2.44998 3.1H0.54998V3.09ZM6.07998 7.17C7.23998 6.11 7.98998 4.75 8.32998 3.09H3.82998C4.20998 4.68 4.94998 6.04 6.07998 7.17Z" fill="#333333"/>
  </g>
  <defs>
    <clipPath id="clip0_8365_5630">
      <rect width="18.84" height="14.46" fill="white" transform="translate(0.5)"/>
    </clipPath>
  </defs>
</svg>