<svg xmlns="http://www.w3.org/2000/svg" width="30" height="47" viewBox="0 0 30 47" fill="none">
        <g clip-path="url(#clip0_7979_45885)">
          <path
            d="M26.2402 0C19.9583 0 14.2539 2.51195 10.0761 6.58276V0H0V46.364H10.074V39.7812C14.2519 43.8521 19.9583 46.364 26.2381 46.364H29.998V43.5471H26.2381C19.6594 43.5471 13.7996 40.4092 10.074 35.555C8.91499 34.0425 7.9619 32.3666 7.25718 30.5634V43.5471H2.81685V2.81685H7.2592V15.8027C7.9619 13.9995 8.91499 12.3215 10.0761 10.8111C13.8016 5.95477 19.6614 2.81887 26.2402 2.81887H27.1831V7.2592H26.2402C17.4584 7.2592 10.3163 14.4033 10.3163 23.183C10.3163 31.9627 17.4605 39.1068 26.2402 39.1068H30V29.0328H26.2402C23.0134 29.0328 20.3904 26.4078 20.3904 23.183C20.3904 19.9583 23.0134 17.3332 26.2402 17.3332H30V14.5164H26.2402C21.4606 14.5164 17.5735 18.4034 17.5735 23.183C17.5735 27.9626 21.4606 31.8496 26.2402 31.8496H27.1831V36.292H26.2402C19.0133 36.292 13.1332 30.4119 13.1332 23.183C13.1332 15.9541 19.0133 10.0761 26.2402 10.0761H30V0H26.2402Z"
            fill="#00377B"
          />
        </g>
        <defs>
          <clipPath id="clip0_7979_45885">
            <rect width="30" height="46.364" fill="white" />
          </clipPath>
        </defs>
      </svg>