<svg width="50" height="20" viewBox="0 0 50 20" fill="none" xmlns="http://www.w3.org/2000/svg">
<g clip-path="url(#clip0_8310_9023)">
<path fill-rule="evenodd" clip-rule="evenodd" d="M39.5431 20H10.9594C5.31883 20 0.75 15.5243 0.75 10.0012C0.75 4.47817 5.32137 0 10.9594 0H39.5431C45.1812 0 49.7525 4.47817 49.7525 10.0012C49.7525 15.5243 45.1837 20.0025 39.5431 20.0025" fill="#FFEB00"/>
<path fill-rule="evenodd" clip-rule="evenodd" d="M12.2126 4.79688C9.1371 4.79688 6.64062 6.72746 6.64062 9.10836C6.64062 10.6384 7.67426 11.9818 9.22599 12.7481L8.70028 14.6687C8.67996 14.7285 8.69774 14.7907 8.74091 14.8329C8.77139 14.8628 8.81203 14.8777 8.8552 14.8777C8.88821 14.8777 8.92123 14.8653 8.95171 14.8429L11.2095 13.3502C11.5371 13.395 11.8723 13.4223 12.2126 13.4223C15.2881 13.4223 17.7846 11.4917 17.7846 9.11084C17.7846 6.72995 15.2907 4.79936 12.2126 4.79936V4.79688Z" fill="#111111"/>
<path d="M22.4811 12.6922V15.4761H20.457V5.20863H21.8843L22.1332 5.86045C22.5624 5.44 23.2151 4.99219 24.269 4.99219C26.2525 4.99219 27.1947 6.4451 27.1795 8.79366C27.1795 11.2517 25.7243 12.8265 23.6443 12.8265C23.243 12.8265 22.9383 12.7991 22.4811 12.6897V12.6922ZM22.4811 6.86556V11.3064C22.5929 11.3188 22.8697 11.3462 23.1338 11.3462C24.5763 11.3462 25.13 10.356 25.13 8.79366C25.13 7.42284 24.7567 6.59438 23.6062 6.59438C23.2329 6.59438 22.8164 6.70384 22.4837 6.86556H22.4811Z" fill="#111111"/>
<path d="M31.5876 8.10345H32.7381V7.85963C32.7381 7.0461 32.2657 6.66546 31.448 6.66546C30.8232 6.66546 30.0207 6.84209 29.368 7.15557L28.8143 5.82456C29.5356 5.33444 30.6429 4.99609 31.6283 4.99609C33.5686 4.99609 34.6225 6.00119 34.6225 7.91686V12.6289H33.1952L32.987 12.0044C32.1692 12.5891 31.42 12.8329 30.7419 12.8329C29.2588 12.8329 28.4258 11.9646 28.4258 10.4968C28.4258 8.93439 29.5356 8.10593 31.5851 8.10593L31.5876 8.10345ZM32.7381 10.7232V9.3648H31.8086C30.7699 9.3648 30.2416 9.73051 30.2416 10.4644C30.2416 11.0217 30.5337 11.2929 31.128 11.2929C31.6816 11.2929 32.3902 11.0217 32.7356 10.7232H32.7381Z" fill="#111111"/>
<path d="M40.7494 11.8659C40.0434 13.7119 39.1977 15.0578 37.9634 15.8042L36.7164 14.6772C37.4377 14.0652 37.9507 13.4681 38.3926 12.667L35.7031 5.48448L37.712 4.95457L39.4313 10.7812L41.1354 4.92969L43.1189 5.47204L40.7494 11.8684V11.8659Z" fill="#111111"/>
</g>
<defs>
<clipPath id="clip0_8310_9023">
<rect width="49" height="20" fill="white" transform="translate(0.75)"/>
</clipPath>
</defs>
</svg>
