<svg width="52" height="20" viewBox="0 0 52 20" fill="none" xmlns="http://www.w3.org/2000/svg">
<path d="M25.8828 4.28711H29.9724C30.6159 4.28711 31.177 4.36943 31.6528 4.53406C32.1285 4.69869 32.5218 4.92369 32.8353 5.21454C33.1461 5.50538 33.3799 5.85111 33.5339 6.25171C33.6879 6.65232 33.7649 7.08585 33.7649 7.55231V7.88431C33.7649 8.35077 33.6824 8.7843 33.5201 9.19313C33.3551 9.59922 33.1159 9.95593 32.7996 10.2632C32.4833 10.5706 32.09 10.812 31.6198 10.9931C31.1495 11.1742 30.6022 11.262 29.9806 11.262H27.4614V15.7153H25.8883V4.28711H25.8828ZM27.4559 5.65081V9.89831H29.7111C31.364 9.89831 32.189 9.21783 32.189 7.85413V7.56877C32.189 6.91299 31.991 6.43007 31.5923 6.11727C31.1962 5.80447 30.6269 5.65081 29.8844 5.65081H27.4532H27.4559Z" fill="#333333"/>
<path d="M37.8016 15.8388C36.9216 15.8388 36.2258 15.622 35.7115 15.1885C35.1972 14.7549 34.9414 14.1595 34.9414 13.3967V12.9687C34.9414 12.2279 35.1889 11.6269 35.6867 11.1605C36.1845 10.6968 36.9903 10.4636 38.1014 10.4636H40.3098V9.95594C40.3098 9.37424 40.1696 8.94345 39.889 8.66358C39.6085 8.38371 39.1492 8.24377 38.5139 8.24377C38.0051 8.24377 37.5624 8.32334 37.1883 8.48248C36.8116 8.64163 36.4238 8.8529 36.0195 9.11631L35.2577 7.97487C35.6812 7.67853 36.157 7.42336 36.6878 7.20659C37.2186 6.98983 37.8319 6.88281 38.5304 6.88281C39.0172 6.88281 39.4628 6.94318 39.8643 7.06391C40.2658 7.18464 40.6123 7.36573 40.9039 7.60171C41.1954 7.84042 41.4237 8.13127 41.5859 8.47425C41.7509 8.81723 41.8334 9.20686 41.8334 9.64039V15.7126H40.3566V14.6671H40.3401C40.2548 14.8263 40.1421 14.9717 39.999 15.1034C39.856 15.2351 39.6993 15.3504 39.5315 15.4437C39.2977 15.5699 39.0475 15.6687 38.778 15.7373C38.5084 15.8058 38.1812 15.8388 37.8016 15.8388ZM40.3126 11.7641H38.1372C37.5349 11.7641 37.1031 11.8794 36.8418 12.1126C36.5833 12.3458 36.454 12.6669 36.454 13.0784V13.3007C36.454 13.7233 36.6025 14.0306 36.8996 14.2199C37.1966 14.4092 37.5514 14.5053 37.9639 14.5053C38.3462 14.5053 38.6762 14.4614 38.9567 14.3708C39.2372 14.2803 39.493 14.1458 39.7268 13.9675C39.9385 13.8083 40.0898 13.6272 40.1806 13.4214C40.2713 13.2156 40.3153 12.9495 40.3153 12.6202V11.7641H40.3126Z" fill="#333333"/>
<path d="M47.2025 13.9702L49.4907 7.04199H51.1106L46.6002 19.2961L45.2004 18.8049L46.3307 15.8416L43.168 7.04199H44.8373L47.1393 13.9702H47.2025Z" fill="#333333"/>
<path d="M20.1596 0H0.113281V20H20.1596V0Z" fill="#00C73C"/>
<path d="M11.731 14.5772L8.49676 9.83851V14.5772H5.125V5.4209H8.54351L11.7778 10.1595V5.4209H15.1495V14.5772H11.731Z" fill="white"/>
</svg>
