<svg width="32" height="32" viewBox="0 0 32 32" fill="none" xmlns="http://www.w3.org/2000/svg">
<path d="M31.7422 11.2162C31.3626 8.25482 30.2997 5.55918 28.4397 3.5849C26.4657 1.72453 23.7705 0.661454 20.8096 0.281785C17.9625 -0.0978833 16.0266 0.0160173 16.0266 0.0160173C16.0266 0.0160173 14.0906 -0.0599164 11.2435 0.281785C8.2826 0.661454 5.58739 1.72453 3.61344 3.5849C1.75338 5.55918 0.690478 8.25482 0.310873 11.2162C-0.0687334 14.0638 0.0071878 16.0001 0.0071878 16.0001C0.0071878 16.0001 -0.0687334 17.9364 0.272912 20.7839C0.652518 23.7449 1.71541 26.4409 3.57548 28.4152C5.54943 30.2756 8.24464 31.3383 11.2056 31.718C14.0526 32.0976 15.9886 31.9841 15.9886 31.9841C15.9886 31.9841 17.9246 32.0597 20.7716 31.718C23.7326 31.3383 26.4278 30.2756 28.4017 28.4152C30.2618 26.4413 31.3247 23.7449 31.7043 20.7839C32.0839 17.9364 31.97 16.0001 31.97 16.0001C31.97 16.0001 32.1218 14.0638 31.7422 11.2162Z" fill="#1E4BC6"/>
<path d="M5.89062 11.332H8.77563C9.23116 11.332 9.61076 11.408 9.99037 11.5598C10.37 11.7117 10.6737 11.9395 10.9394 12.2053C11.2051 12.471 11.4329 12.7748 11.5847 13.1544C11.7366 13.5341 11.8125 13.9138 11.8125 14.3314C11.8125 14.749 11.7366 15.1287 11.5847 15.5084C11.4329 15.8881 11.2051 16.1922 10.9394 16.4576C10.6737 16.7229 10.332 16.9515 9.99037 17.1026C9.64872 17.2545 9.23116 17.3312 8.77563 17.3312H7.48497V19.7227H5.92859V11.332H5.89062ZM7.44701 12.7752V15.8505H8.66175C8.88951 15.8505 9.11727 15.8125 9.30708 15.7366C9.49688 15.6606 9.64872 15.5467 9.80057 15.3949C9.95241 15.243 10.0283 15.0911 10.1043 14.9013C10.1802 14.7115 10.2181 14.5216 10.2181 14.2938C10.2181 14.066 10.1802 13.8762 10.1043 13.6864C10.0283 13.4965 9.91445 13.3447 9.80057 13.1928C9.64872 13.0409 9.49688 12.927 9.30708 12.8511C9.11727 12.7752 8.88951 12.7372 8.66175 12.7372H7.44701V12.7752ZM15.4187 19.7227C15.0012 19.7227 14.6216 19.6472 14.204 19.4949C13.8244 19.343 13.4448 19.1152 13.1411 18.8498C12.8374 18.5457 12.5717 18.204 12.3819 17.7864C12.1921 17.3688 12.0782 16.8752 12.0782 16.3437C12.0782 15.8121 12.1541 15.3186 12.3439 14.9009C12.5337 14.4833 12.7995 14.1416 13.1031 13.8378C13.4068 13.5341 13.7864 13.3443 14.166 13.1924C14.5836 13.0405 14.9632 12.9646 15.4187 12.9646C15.8743 12.9646 16.2918 13.0405 16.6335 13.1924C17.0131 13.3443 17.3168 13.5721 17.5825 13.8378V12.9646H19.1389V19.7223H17.5825V18.7732C17.3547 19.0773 17.0131 19.3047 16.6335 19.4945C16.2539 19.6472 15.8743 19.7227 15.4187 19.7227ZM15.6845 18.3183C15.9881 18.3183 16.2539 18.2803 16.4816 18.1664C16.7094 18.0525 16.9372 17.9386 17.127 17.7488C17.3168 17.559 17.4306 17.3691 17.5445 17.1413C17.6584 16.9128 17.6964 16.6474 17.6964 16.382C17.6964 16.1159 17.6584 15.8501 17.5445 15.6227C17.4306 15.3949 17.3168 15.1671 17.127 15.0152C16.9372 14.8254 16.7474 14.7115 16.4816 14.5976C16.2159 14.4457 15.9502 14.4077 15.6845 14.4077C15.4187 14.4077 15.153 14.4457 14.8873 14.5596C14.6216 14.6735 14.4318 14.7874 14.242 14.9772C14.0522 15.1671 13.9003 15.3569 13.8244 15.5847C13.7105 15.8125 13.6725 16.0783 13.6725 16.344C13.6725 16.6098 13.7105 16.8752 13.8244 17.103C13.9383 17.3316 14.0901 17.559 14.242 17.7488C14.4318 17.9386 14.6595 18.0522 14.8873 18.1664C15.115 18.242 15.3808 18.3183 15.6845 18.3183ZM21.3026 13.0026L23.2007 17.5966L24.9468 13.0026H26.5791L22.5933 22.798H20.9989L22.4035 19.4194L19.6703 13.0026H21.3026Z" fill="white"/>
</svg>
