<svg width="43" height="20" viewBox="0 0 43 20" fill="none" xmlns="http://www.w3.org/2000/svg">
<path d="M10.9463 8.28143C10.969 10.6409 13.083 11.4265 13.107 11.4358C13.0897 11.4918 12.7696 12.5548 11.9933 13.6539C11.3224 14.6035 10.6262 15.5505 9.52981 15.5692C8.45212 15.5879 8.10534 14.9503 6.87293 14.9503C5.64052 14.9503 5.25639 15.5492 4.23605 15.5892C3.17703 15.6279 2.37143 14.5622 1.69521 13.6152C0.310744 11.6799 -0.745608 8.14538 0.673532 5.76059C1.37777 4.57619 2.63685 3.82527 4.00397 3.8066C5.04299 3.78793 6.02465 4.48416 6.66086 4.48416C7.29707 4.48416 8.48813 3.64655 9.74189 3.76926C10.2661 3.7906 11.7399 3.97466 12.6855 5.31644C12.6095 5.36179 10.9276 6.3101 10.9463 8.28276M8.92028 2.48883C9.4818 1.82994 9.86059 0.912304 9.75789 0C8.94829 0.0320107 7.96796 0.522841 7.38643 1.18173C6.86626 1.76459 6.41011 2.69823 6.53282 3.5932C7.43578 3.66122 8.35876 3.14905 8.92028 2.48883Z" fill="#070000"/>
<path d="M17.0547 1.36034C17.4708 1.28965 17.931 1.22696 18.4338 1.17094C18.9366 1.11492 19.4888 1.08691 20.093 1.08691C20.9547 1.08691 21.6976 1.18828 22.3218 1.39235C22.946 1.59508 23.4595 1.88718 23.861 2.26597C24.2064 2.60209 24.4745 3.00222 24.6692 3.46504C24.8626 3.92786 24.96 4.46137 24.96 5.06424C24.96 5.79382 24.8266 6.43136 24.5612 6.97821C24.2958 7.52506 23.933 7.98388 23.4742 8.356C23.0153 8.72813 22.4685 9.00422 21.8376 9.18694C21.2054 9.36967 20.5158 9.46037 19.7703 9.46037C19.0954 9.46037 18.5285 9.41102 18.0697 9.31365V15.373H17.0574V1.36034H17.0547ZM18.067 8.42936C18.3111 8.49872 18.5832 8.54807 18.886 8.57608C19.1874 8.60408 19.5102 8.61876 19.8543 8.61876C21.1467 8.61876 22.1484 8.32399 22.8593 7.7358C23.5702 7.14627 23.925 6.28465 23.925 5.14827C23.925 4.60142 23.8316 4.12393 23.6449 3.71712C23.4582 3.31032 23.1927 2.97688 22.8486 2.71812C22.5045 2.45937 22.095 2.26197 21.6215 2.12859C21.1481 1.99522 20.6239 1.92853 20.049 1.92853C19.5902 1.92853 19.1954 1.94587 18.8646 1.98055C18.5338 2.01522 18.2684 2.0539 18.0684 2.09658V8.42936H18.067Z" fill="#070000"/>
<path d="M33.0108 12.9719C33.0108 13.3787 33.0175 13.7855 33.0321 14.1923C33.0468 14.5991 33.0895 14.9913 33.1615 15.3701H32.2132L32.0625 13.9402H32.0185C31.8891 14.1363 31.7237 14.3337 31.5236 14.5298C31.3222 14.7258 31.0902 14.9046 30.8234 15.066C30.558 15.2273 30.2566 15.3567 29.9191 15.4554C29.5817 15.5528 29.2122 15.6021 28.8094 15.6021C28.3066 15.6021 27.8651 15.5221 27.485 15.3607C27.1048 15.1993 26.7927 14.9886 26.5487 14.7298C26.3046 14.4698 26.1218 14.1723 25.9991 13.8362C25.8778 13.5001 25.8164 13.1627 25.8164 12.8265C25.8164 11.6341 26.3299 10.7165 27.3569 10.071C28.3839 9.4254 29.9311 9.1173 31.9985 9.14531V8.87189C31.9985 8.60513 31.9731 8.2997 31.9224 7.95692C31.8718 7.6128 31.7611 7.28736 31.589 6.97926C31.4169 6.67115 31.1582 6.41107 30.8141 6.20166C30.47 5.99093 30.0031 5.88556 29.4136 5.88556C28.9695 5.88556 28.528 5.95225 28.0892 6.08563C27.6517 6.219 27.2529 6.4044 26.8941 6.64314L26.5713 5.9069C27.0315 5.5988 27.505 5.37739 27.9931 5.24401C28.4813 5.11063 28.9908 5.04395 29.5216 5.04395C30.2392 5.04395 30.8247 5.16265 31.2769 5.4014C31.729 5.64014 32.0838 5.94825 32.3426 6.32704C32.6013 6.70583 32.7774 7.12997 32.8708 7.59946C32.9641 8.06895 33.0108 8.53578 33.0108 8.9986V12.9746V12.9719ZM31.9985 9.96425C31.453 9.94958 30.8821 9.97092 30.2859 10.0269C29.6897 10.083 29.1415 10.2057 28.6387 10.3951C28.1358 10.5845 27.7197 10.8619 27.3889 11.226C27.0582 11.5901 26.8941 12.0743 26.8941 12.6772C26.8941 13.3921 27.1022 13.9189 27.5183 14.255C27.9344 14.5911 28.4013 14.7605 28.9188 14.7605C29.3349 14.7605 29.7084 14.7045 30.0378 14.5925C30.3686 14.4804 30.6554 14.3297 30.8994 14.1403C31.1435 13.9509 31.3476 13.7375 31.513 13.4988C31.6784 13.26 31.8037 13.0146 31.8904 12.7625C31.9625 12.4811 31.9985 12.2784 31.9985 12.1516V9.96425Z" fill="#070000"/>
<path d="M34.9918 5.27246L37.6193 11.836C37.7633 12.2001 37.8994 12.5762 38.0288 12.9617C38.1581 13.3472 38.2728 13.7019 38.3729 14.0247H38.4169C38.5169 13.7166 38.6316 13.3685 38.761 12.983C38.8904 12.5976 39.0344 12.2014 39.1918 11.7946L41.6473 5.27246H42.7237L39.7307 12.6789C39.4292 13.4645 39.1451 14.1768 38.8797 14.8143C38.6143 15.4519 38.3449 16.028 38.0728 16.5389C37.7994 17.0511 37.5233 17.5032 37.2432 17.8953C36.9631 18.2875 36.651 18.6316 36.3055 18.9263C35.9041 19.2771 35.5346 19.5332 35.1972 19.6946C34.8597 19.856 34.6343 19.9574 34.5183 20L34.1728 19.1798C34.4316 19.0677 34.7183 18.921 35.0344 18.7383C35.3505 18.5556 35.6586 18.3181 35.9601 18.0234C36.2188 17.7713 36.5016 17.4378 36.811 17.0244C37.1191 16.6109 37.3966 16.1094 37.6406 15.5199C37.7273 15.2958 37.77 15.1477 37.77 15.0784C37.77 14.981 37.7273 14.833 37.6406 14.6369L33.9141 5.27513H34.9918V5.27246Z" fill="#070000"/>
</svg>
