<svg width="52" height="12" viewBox="0 0 52 12" fill="none" xmlns="http://www.w3.org/2000/svg">
<path d="M4.4364 5.94944C5.67508 5.94944 6.39802 5.18734 6.39802 4.19354V4.16005C6.39802 3.01691 5.62636 2.40281 4.38964 2.40281H2.47674V5.94944H4.4364ZM3.88957e-05 1.37552C-0.00117336 1.20762 0.030031 1.04114 0.0918344 0.885789C0.153638 0.730438 0.244805 0.589319 0.360026 0.47065C0.475247 0.351982 0.612218 0.258136 0.762961 0.19458C0.913705 0.131023 1.07521 0.0990259 1.23806 0.100452H4.59814C7.28269 0.100452 8.90589 1.74117 8.90589 4.11117V4.14465C8.90589 6.82873 6.88062 8.22166 4.35716 8.22166H2.47674V10.6245C2.47795 10.7925 2.44673 10.9591 2.3849 11.1146C2.32307 11.27 2.23187 11.4113 2.1166 11.5301C2.00133 11.6488 1.86429 11.7428 1.71346 11.8065C1.56264 11.8701 1.40104 11.9022 1.23806 11.9009C1.07509 11.9021 0.913506 11.8699 0.762712 11.8062C0.611919 11.7425 0.474929 11.6484 0.359718 11.5296C0.244506 11.4107 0.153373 11.2694 0.091624 11.1139C0.0298747 10.9584 -0.0012577 10.7918 3.88957e-05 10.6238V1.37552ZM15.4721 6.94458L13.9132 3.11535L12.353 6.94458H15.4721ZM8.51162 10.159L12.4335 1.02796C12.7077 0.39779 13.2052 0.016742 13.8814 0.016742H14.0249C14.7004 0.016742 15.1824 0.39779 15.4565 1.02796L19.3791 10.1597C19.4596 10.3425 19.507 10.508 19.507 10.6734C19.507 11.3531 18.9933 11.9002 18.334 11.9002C17.7552 11.9002 17.3694 11.552 17.144 11.0216L16.3886 9.19806H11.4378L10.6499 11.1046C10.4401 11.6022 10.0225 11.9002 9.50867 11.9002C8.86562 11.9002 8.36677 11.3692 8.36677 10.7068C8.36677 10.524 8.43108 10.3419 8.51162 10.159ZM22.1247 7.32563L18.4925 2.23807C18.3151 1.98895 18.1872 1.69094 18.1872 1.32597C18.1872 0.646911 18.7334 0.100452 19.4246 0.100452C19.9877 0.100452 20.3404 0.415202 20.6457 0.87929L23.379 4.93956L26.1603 0.845806C26.4656 0.381718 26.8358 0.08371 27.3496 0.08371C28.105 0.08371 28.5552 0.630169 28.5552 1.32664C28.5552 1.67487 28.3947 1.98962 28.2336 2.222L24.6007 7.27674V10.6245C24.602 10.7924 24.5708 10.959 24.509 11.1144C24.4472 11.2698 24.356 11.411 24.2408 11.5298C24.1256 11.6486 23.9887 11.7426 23.8379 11.8063C23.6872 11.87 23.5256 11.9021 23.3627 11.9009C23.1998 11.9021 23.0383 11.87 22.8875 11.8063C22.7368 11.7426 22.5998 11.6486 22.4846 11.5298C22.3694 11.411 22.2783 11.2698 22.2165 11.1144C22.1547 10.959 22.1235 10.7924 22.1247 10.6245V7.32563ZM28.6305 6.03382V5.99966C28.6305 2.70149 31.0416 0 34.4971 0C36.1853 0 37.3265 0.464088 38.2593 1.17663C38.5159 1.37619 38.7419 1.7405 38.7419 2.18785C38.7419 2.88431 38.195 3.43144 37.5201 3.43144C37.1824 3.43144 36.957 3.29817 36.7796 3.18232C36.0898 2.6526 35.3656 2.35326 34.4809 2.35326C32.5842 2.35326 31.2183 3.97857 31.2183 5.96685V5.99966C31.2183 7.98861 32.5518 9.64674 34.4809 9.64674C35.5267 9.64674 36.2178 9.31458 36.9245 8.73464C37.1316 8.55392 37.3936 8.4539 37.665 8.45203C38.2911 8.45203 38.8211 8.98309 38.8211 9.63C38.8211 10.0278 38.6289 10.3425 38.4041 10.5408C37.3909 11.4522 36.2015 12 34.4017 12C31.089 12 28.6298 9.36414 28.6298 6.03315M48.8397 6.03382V5.99966C48.8397 4.01071 47.4256 2.35326 45.4322 2.35326C43.4381 2.35326 42.0559 3.97857 42.0559 5.96685V5.99966C42.0559 7.98861 43.4712 9.64674 45.4633 9.64674C47.4574 9.64674 48.8397 8.0221 48.8397 6.03382ZM39.4681 6.03382V5.99966C39.4681 2.70149 41.9915 0 45.4633 0C48.9364 0 51.4274 2.66868 51.4274 5.96685V5.99966C51.4274 9.29784 48.904 12 45.4322 12C41.9591 12 39.4681 9.33065 39.4681 6.03315" fill="#FA2828"/>
</svg>
